<svg width="80" height="82" viewBox="0 0 80 82" xmlns="http://www.w3.org/2000/svg">
    <path d="M76.383 81.486H3.146A3.155 3.155 0 0 1 0 78.324V65.676c-.022-7.01 4.488-13.221 11.137-15.336l12.583-4.048a8.369 8.369 0 0 0 5.789-7.02 13.804 13.804 0 0 1-6.292-11.604V13.755C23.234 6.178 29.332.035 36.87 0h5.82c3.63 0 7.11 1.45 9.677 4.029a13.79 13.79 0 0 1 4.008 9.726V27.73a13.74 13.74 0 0 1-6.292 11.605 8.369 8.369 0 0 0 5.789 7.02l12.583 4.047c6.649 2.115 11.16 8.327 11.137 15.336v12.648a3.17 3.17 0 0 1-.966 2.218 3.14 3.14 0 0 1-2.243.881zM6.292 75.162h66.945v-9.486c.015-4.254-2.726-8.022-6.764-9.297L53.89 52.332c-6.098-1.946-10.236-7.641-10.225-14.071v-.854a3.162 3.162 0 0 1 1.92-2.91 7.432 7.432 0 0 0 4.498-6.83V13.756A7.45 7.45 0 0 0 47.918 8.5a7.374 7.374 0 0 0-5.228-2.177h-5.82c-4.088 0-7.407 3.322-7.424 7.43v13.977a7.432 7.432 0 0 0 4.499 6.83 3.162 3.162 0 0 1 1.919 2.91v.853c.021 6.433-4.12 12.134-10.225 14.071l-12.583 4.047c-4.038 1.275-6.78 5.043-6.764 9.297v9.423z" fill="#70819D" fill-rule="nonzero"/>
</svg>
