<svg width="80" height="71" viewBox="0 0 80 71" xmlns="http://www.w3.org/2000/svg">
    <path d="M77.16 13.283H58.306V2.779A2.778 2.778 0 0 0 55.53 0H24.461a2.778 2.778 0 0 0-2.776 2.779v10.504H2.777A2.778 2.778 0 0 0 0 16.062v51.936a2.778 2.778 0 0 0 2.777 2.779h74.382a2.778 2.778 0 0 0 2.777-2.78V16.063a2.778 2.778 0 0 0-2.777-2.78zM27.237 5.558h25.516v7.725H27.238V5.558zM5.553 18.84h68.83v20.397H48.145v-5.196a2.778 2.778 0 0 0-2.777-2.78h-10.8a2.778 2.778 0 0 0-2.777 2.78v5.196H5.553V18.84zm31.791 25.955h5.248v2.445h-5.248v-2.445zm0-5.558v-2.418h5.248v2.418h-5.248zM5.553 65.219V44.795h26.238v5.224a2.778 2.778 0 0 0 2.777 2.779h10.8a2.778 2.778 0 0 0 2.777-2.78v-5.223h26.238v20.424H5.553z" fill="#70819D" fill-rule="nonzero"/>
</svg>
