<svg width="22" height="22" xmlns="http://www.w3.org/2000/svg">
    <g fill-rule="nonzero" fill="none">
        <path fill="#3E71B8" d="m13.865 9.972 6.978-6.978.559.56-6.978 6.977zM12.5 10.065l6.612-7.325.587.53-6.612 7.325z"/>
        <path d="M8.451 6.455c.83 1.506.947 1.933.209 2.652l.545.573c1.262-1.216.672-2.273-.063-3.613-.173-.318-.35-.637-.52-.98a2.993 2.993 0 0 1 .236-3.215c.341-.473.77-.876 1.262-1.184L9.713 0a5.313 5.313 0 0 0-1.482 1.407 3.788 3.788 0 0 0-.316 4.027c.19.369.372.7.536 1.021z" fill="#040000"/>
        <path d="M11.164 6.422c.888 1.523 1.013 1.953.22 2.68l.587.578c1.352-1.227.72-2.297-.07-3.647-.187-.321-.376-.643-.555-.993a3.029 3.029 0 0 1-.358-1.85l-.835-.11a3.781 3.781 0 0 0 .433 2.314c.189.37.402.703.578 1.028zM21.56 10.12H.44v2.87h1.981a8.46 8.46 0 0 0 3.525 6.65H5.85V22h10.301v-2.36h-.098a8.451 8.451 0 0 0 3.525-6.65h1.981v-2.87zM6.64 20.086a8.58 8.58 0 0 0 3.391 1.115H6.64v-1.115zm8.723 1.115H11.97a8.58 8.58 0 0 0 3.394-1.115v1.115zM11 20.489c-4.216-.005-7.665-3.323-7.79-7.493h15.58c-.125 4.17-3.574 7.488-7.79 7.493zm9.78-8.28H1.23v-1.312H20.77l.01 1.312z" fill="#040000"/>
    </g>
</svg>
