<svg xmlns="http://www.w3.org/2000/svg" width="79.825" height="78.391">
    <g data-name="그룹 686" transform="translate(-9.573 -7.227)">
        <path data-name="패스 264" d="M50.786 40.771a61.333 61.333 0 0 1 3.95 14.941h-16.7l25.179 28.906L88.4 55.711H72.345C63.034-1.683 10.573 9.017 10.573 9.017a55.6 55.6 0 0 1 22.6 9.091" style="stroke-linecap:round;stroke-linejoin:round;fill:none;stroke:#000;stroke-width:2px"/>
        <circle data-name="타원 195" cx="16.509" cy="16.509" r="16.509" transform="translate(18.302 18.108)" style="stroke-miterlimit:10;fill:none;stroke:#000;stroke-width:2px"/>
        <g data-name="그룹 482">
            <path data-name="패스 265" d="M33.059 43.199a8.987 8.987 0 0 1-3.216-1.36.915.915 0 0 1-.243-1.252l.541-.824a.9.9 0 0 1 1.248-.259 5.615 5.615 0 0 0 3.115 1.057c1.633 0 2.379-.724 2.379-2.053 0-3.148-7.088-2.866-7.088-7.74a4.53 4.53 0 0 1 3.358-4.609.883.883 0 0 0 .605-.855v-1.089a.907.907 0 0 1 .906-.907h.5a.907.907 0 0 1 .907.907v1.008a.885.885 0 0 0 .654.869 6.067 6.067 0 0 1 2.568 1.367.907.907 0 0 1 .074 1.28l-.568.645a.909.909 0 0 1-1.232.114 3.678 3.678 0 0 0-2.336-.826c-1.376 0-2.145.653-2.145 1.934 0 2.892 7.088 2.449 7.088 7.672a4.67 4.67 0 0 1-3.46 4.785.867.867 0 0 0-.644.82v1.135a.907.907 0 0 1-.907.907h-.5a.907.907 0 0 1-.906-.907v-.94a.892.892 0 0 0-.698-.879z"/>
        </g>
    </g>
</svg>
