<?xml version="1.0" encoding="UTF-8"?>
<svg width="24px" height="24px" viewBox="0 0 24 24" version="1.1" xmlns="http://www.w3.org/2000/svg" xmlns:xlink="http://www.w3.org/1999/xlink" style="background: #FFFFFF;">
    <title>627A6353-09DB-4C18-9DEC-65922AC77B6A</title>
    <g id="경남아이콘-모음" stroke="none" stroke-width="1" fill="none" fill-rule="evenodd">
        <g transform="translate(-1149.000000, -101.000000)" fill="#ECECEC">
            <rect x="0" y="0" width="1858" height="1024"></rect>
        </g>
        <g id="Icon-/-카테고리-아이콘06-Copy">
            <rect fill="#FFFFFF" x="0" y="0" width="24" height="24"></rect>
            <g id="자산-1" transform="translate(4.000000, 2.000000)" fill="#172B4D" fill-rule="nonzero">
                <path d="M16,14.8003895 C16,14.8003895 16,14.8003895 16,14.7458617 L16,0.778967868 C16,0.348755794 15.6512442,0 15.2210321,0 L0.778967868,0 C0.348755794,0 0,0.348755794 0,0.778967868 L0,19.684518 C0,20.1147301 0.348755794,20.4635443 0.778967868,20.4635443 L10.3213242,20.4635443 C10.4226001,20.4647267 10.523146,20.4462051 10.617332,20.4089581 C10.7233629,20.3780465 10.8216083,20.3249408 10.9055501,20.2531646 L15.8130477,15.345667 C15.8751589,15.2795585 15.9252461,15.2031095 15.9610516,15.1197663 C15.9654097,15.0939836 15.9654097,15.0676523 15.9610516,15.0418695 C15.9854117,14.9636285 15.9985256,14.8823218 16,14.8003895 L16,14.8003895 Z M1.55793574,1.55793574 L14.4498539,1.55793574 L14.4498539,14.0214216 L10.3213242,14.0214216 C9.89111217,14.0214216 9.54235638,14.3701774 9.54235638,14.8003895 L9.54235638,18.9289192 L1.55793574,18.9289192 L1.55793574,1.55793574 Z M11.1002921,17.8072055 L11.1002921,15.5793574 L13.3515093,15.5793574 L11.1002921,17.8072055 Z" id="Shape"></path>
                <path d="M4.06621227,5.83446933 L11.9415774,5.83446933 C12.3717895,5.83446933 12.7205453,5.48571353 12.7205453,5.05550146 C12.7205453,4.62528939 12.3717895,4.27653359 11.9415774,4.27653359 L4.06621227,4.27653359 C3.63600019,4.27653359 3.2872444,4.62528939 3.2872444,5.05550146 C3.2872444,5.48571353 3.63600019,5.83446933 4.06621227,5.83446933 Z" id="Path"></path>
                <path d="M4.06621227,8.91139241 L11.9415774,8.91139241 C12.3717895,8.91139241 12.7205453,8.56263661 12.7205453,8.13242454 C12.7205453,7.70221246 12.3717895,7.35345667 11.9415774,7.35345667 L4.06621227,7.35345667 C3.63600019,7.35345667 3.2872444,7.70221246 3.2872444,8.13242454 C3.2872444,8.56263661 3.63600019,8.91139241 4.06621227,8.91139241 Z" id="Path"></path>
                <path d="M8.31937683,10.4303797 L4.06621227,10.4303797 C3.63600019,10.4303797 3.2872444,10.7791355 3.2872444,11.2093476 C3.2872444,11.6395597 3.63600019,11.9883155 4.06621227,11.9883155 L8.31937683,11.9883155 C8.7495889,11.9883155 9.09834469,11.6395597 9.09834469,11.2093476 C9.09834469,10.7791355 8.7495889,10.4303797 8.31937683,10.4303797 Z" id="Path"></path>
            </g>
        </g>
    </g>
</svg>