<svg xmlns="http://www.w3.org/2000/svg" width="73.552" height="78.804">
    <defs>
        <style>
            .cls-1{fill:none;stroke:#000;stroke-linecap:round;stroke-linejoin:round;stroke-width:2px}
        </style>
    </defs>
    <g id="그룹_684" data-name="그룹 684" transform="translate(-7.948 -5.808)">
        <path id="사각형_918" data-name="사각형 918" class="cls-1" d="M5.513 0h16.228a5.513 5.513 0 0 1 5.513 5.513v4.158h0H0h0V5.513A5.513 5.513 0 0 1 5.513 0z" transform="rotate(45 -60.812 48.1)"/>
        <path id="패스_260" data-name="패스 260" class="cls-1" d="M21.65 65.272s4.69-7.667 11.923-8.643 11.053 1.032 11.053 1.032h12.94s8.168.018 8.388 4.347-8.112 4.114-8.112 4.114H47.7" transform="translate(-1.522 -6.139)"/>
        <path id="패스_261" data-name="패스 261" class="cls-1" d="m68.008 59.608 9.059-9.059s3.37-2.362 5.732 0 0 4.963 0 4.963L70.073 68.238s-5.939 5.7-9.471 5.807.576 0-3.892 0-12.5-.4-15.242 0-4.968 3.676-4.968 3.676" transform="translate(-3.361 -5.289)"/>
        <circle id="타원_194" data-name="타원 194" class="cls-1" cx="19.278" cy="19.278" r="19.278" transform="translate(29.08 6.809)"/>
        <path id="패스_262" data-name="패스 262" d="M40.816 28.326c0-4.163 1.689-6.33 4.282-6.33s4.265 2.184 4.265 6.33c0 4.18-1.672 6.448-4.265 6.448s-4.282-2.268-4.282-6.448zm6.176 0c0-3.412-.8-4.367-1.893-4.367s-1.911.955-1.911 4.367c0 3.429.818 4.487 1.911 4.487s1.893-1.058 1.893-4.487z" transform="translate(-3.897 -1.881)"/>
        <path id="패스_263" data-name="패스 263" d="M65.292 27.762h-1.2l.984-3.668a.764.764 0 1 0-1.475-.4l-1.09 4.063H61.2L60.111 23.7a1.067 1.067 0 0 0-1.856 0l-1.09 4.063h-1.31l-1.09-4.063a.764.764 0 1 0-1.475.4l.984 3.668h-1.2a.764.764 0 0 0 0 1.528h1.609l1.089 4.063a.815.815 0 0 0 .052.112.662.662 0 0 0 .042.091.766.766 0 0 0 .152.175c.011.009.017.02.028.028a.746.746 0 0 0 .249.124c.006 0 .011.007.018.009a.716.716 0 0 0 .191.025h.013a.72.72 0 0 0 .191-.025c.007 0 .011-.007.018-.009a.746.746 0 0 0 .249-.124c.011-.008.018-.019.027-.028a.77.77 0 0 0 .152-.175.78.78 0 0 0 .041-.091.65.65 0 0 0 .052-.112l1.09-4.063h1.692l1.09 4.063a.72.72 0 0 0 .051.112.783.783 0 0 0 .042.091.766.766 0 0 0 .152.175c.011.009.017.02.028.028a.746.746 0 0 0 .249.124c.007 0 .011.007.018.009a.716.716 0 0 0 .191.025h.013a.716.716 0 0 0 .191-.025c.007 0 .011-.007.018-.009a.746.746 0 0 0 .249-.124c.011-.008.018-.019.028-.028a.766.766 0 0 0 .152-.175.784.784 0 0 0 .042-.091.719.719 0 0 0 .051-.112l1.09-4.063h1.609a.764.764 0 1 0 0-1.528zm-8.783 2.444-.245-.916h.492zm2.237-2.444.436-1.629.437 1.629zm3.109 2.444-.245-.916h.49z" transform="translate(-5.32 -2.022)"/>
    </g>
</svg>
