<svg width="20" height="20" xmlns="http://www.w3.org/2000/svg">
    <g fill="none" fill-rule="evenodd">
        <path d="m10.1 16.928.528-.732H9.016l.808 1.12zM14.568 10.744l.036-.052a5.912 5.912 0 0 0 1.2-3.572 5.972 5.972 0 1 0-10.756 3.572l.032.044 3.412 4.716h2.692l3.384-4.708zm-9.096-3.64a4.348 4.348 0 1 1 8.696 0 4.348 4.348 0 0 1-8.696 0z"/>
        <path d="M13.42 7.104a3.6 3.6 0 1 0-7.2 0 3.6 3.6 0 0 0 7.2 0zM8.936 17.376l-.848-1.18H2.772L1.8 19.448h16.036l-.972-3.252h-5.312L9.836 18.58z"/>
        <path d="m5.064 10.736-.032-.044A5.972 5.972 0 1 1 15.788 7.12c0 1.29-.421 2.545-1.2 3.572l-.036.052-3.4 4.708h.924l3.124-4.288v-.028a6.652 6.652 0 0 0 1.332-4 6.716 6.716 0 1 0-12.096 4l3.112 4.316h.928l-3.412-4.716zM10.1 16.928l-.276.388-.808-1.12h-.928l.848 1.18.9 1.204 1.716-2.384h-.924z" fill="#3E78CE" fill-rule="nonzero"/>
        <path fill="#3E78CE" fill-rule="nonzero" d="M17.42 15.452h-5.328l-.54.744h5.312l.972 3.252H1.8l.972-3.252h5.316l-.54-.744H2.216L.8 20.192h18.036z"/>
        <path fill="#3E78CE" fill-rule="nonzero" d="M10.628 16.196h.924l.54-.744h-.924zM9.016 16.196l-.54-.744h-.928l.54.744zM14.164 7.104a4.348 4.348 0 1 0-8.696 0 4.348 4.348 0 0 0 8.696 0zm-7.948 0a3.6 3.6 0 1 1 7.2 0 3.6 3.6 0 0 1-7.2 0z"/>
    </g>
</svg>
