<svg width="24" height="24" xmlns="http://www.w3.org/2000/svg" xmlns:xlink="http://www.w3.org/1999/xlink">
    <defs>
        <filter id="a">
            <feColorMatrix in="SourceGraphic" />
        </filter>
        <path d="M19 10.5a8.5 8.5 0 1 0-8.5 8.5 8.5 8.5 0 0 0 8.5-8.5zm-1.076 5.992 4.063 4.063-1.436 1.436-4.063-4.063 1.436-1.436zM10.5 4c3.584 0 6.5 2.916 6.5 6.5S14.084 17 10.5 17A6.507 6.507 0 0 1 4 10.5C4 6.916 6.916 4 10.5 4z" id="b"/>
    </defs>
    <g transform="translate(-8 -8)" filter="url(#a)" fill="none" fill-rule="evenodd">
        <g transform="translate(8 8)">
            <path d="M0 0h24v24H0z"/>
            <mask id="c" fill="#fff">
                <use xlink:href="#b"/>
            </mask>
            <g mask="url(#c)" fill="#1d252f">
                <path d="M0 0h24v24H0z"/>
            </g>
        </g>
    </g>
</svg>
