<?xml version="1.0" encoding="UTF-8"?>
<svg width="40px" height="40px" viewBox="0 0 40 40" version="1.1" xmlns="http://www.w3.org/2000/svg" xmlns:xlink="http://www.w3.org/1999/xlink">
    <title>버튼12@3x</title>
    <g id="버튼12" stroke="none" stroke-width="1" fill="none" fill-rule="evenodd">
        <g id="Padding-Group-2">
            <circle id="Oval" fill="#3E78CE" cx="20" cy="20" r="20"></circle>
            <g id="Icon-/-메인아이콘01-Copy-9" transform="translate(9.000000, 11.000000)">
                <polygon id="Path" points="0 0 22 0 22 22 0 22"></polygon>
                <g id="heart-(1)" transform="translate(0.000000, 0.916667)" fill="#FFFFFF" fill-rule="nonzero">
                    <path d="M20.2102161,1.81784322 C19.0589449,0.666572034 17.5347924,0.0373347458 15.9080975,0.0373347458 C14.2814025,0.0373347458 12.752589,0.671233051 11.6013178,1.82250424 L11.0000466,2.42377542 L10.3894534,1.8131822 C9.2381822,0.661911017 7.70470763,0.0233516949 6.07801271,0.0233516949 C4.45597881,0.0233516949 2.92716525,0.65725 1.78055508,1.80386017 C0.629283898,2.95513136 -0.00461440678,4.48394492 2.10877591e-05,6.11063983 C2.10877591e-05,7.73733475 0.638605932,9.26148729 1.78987712,10.4127585 L10.5432669,19.1661483 C10.6644534,19.2873347 10.827589,19.352589 10.9860636,19.352589 C11.1445381,19.352589 11.3076737,19.2919958 11.4288602,19.1708093 L20.2008941,10.4314025 C21.3521653,9.28013136 21.9860893,7.7513178 21.9860893,6.12462288 C21.9907246,4.49792797 21.3614873,2.96911441 20.2102161,1.81784322 Z" id="Shape"></path>
                </g>
            </g>
        </g>
    </g>
</svg>