<svg width="45" height="45" viewBox="0 0 45 45" xmlns="http://www.w3.org/2000/svg">
    <g fill="none" fill-rule="evenodd">
        <path d="M45 22.5C45 34.926 34.926 45 22.5 45S0 34.926 0 22.5 10.074 0 22.5 0 45 10.074 45 22.5" fill="#FFE600"/>
        <path d="M33.356 26.65a.6.6 0 0 1-.379.127c-.252 0-.512-.138-.69-.364l-2.055-2.592-.647.657v1.534c0 .482-.33.872-.738.872-.406 0-.737-.39-.737-.872v-5.386c0-.48.331-.87.737-.87.407 0 .738.39.738.87v1.963l2.35-2.373c.201-.205.465-.328.706-.328.158 0 .295.052.395.151.258.255.185.75-.164 1.103l-1.66 1.686 2.16 2.725a.97.97 0 0 1 .213.601.634.634 0 0 1-.229.495zm-6.23.198h-3.643c-.437 0-.646-.203-.67-.644h-.005v-5.652c0-.406.302-.734.675-.734.373 0 .677.328.677.734v5.111h2.966c.31 0 .564.266.564.592 0 .327-.254.593-.564.593zm-4.872-.5a.648.648 0 0 1-.35.39.626.626 0 0 1-.256.053.732.732 0 0 1-.656-.447l-.45-1.017H17.56l-.452 1.017a.727.727 0 0 1-.654.447.642.642 0 0 1-.606-.444.745.745 0 0 1 .03-.55l2.5-5.627c.03-.07.168-.24.31-.342.001 0 .002 0 .003-.003a.568.568 0 0 1 .102-.059h.002l.008-.006a.656.656 0 0 1 .247-.053.646.646 0 0 1 .246.053l.01.005.002.001a.544.544 0 0 1 .102.06l.004.002a1.174 1.174 0 0 1 .312.344l2.498 5.625c.08.177.09.375.03.55zm-7.478-.259c0 .398-.297.724-.662.724-.366 0-.665-.326-.665-.724v-5.146h-1.553c-.35 0-.637-.274-.637-.609 0-.335.286-.608.637-.608h4.382c.352 0 .638.273.638.608 0 .335-.286.61-.638.61h-1.502v5.145zM22.5 10.65c-8.295 0-15.02 5.31-15.02 11.865 0 4.211 2.784 7.908 6.968 10.018l-1.415 5.284a.439.439 0 0 0 .414.577.43.43 0 0 0 .262-.099l6.086-4.112c.884.126 1.786.198 2.705.198 8.296 0 15.023-5.31 15.023-11.866 0-6.555-6.727-11.866-15.023-11.866z" fill="#3B1D1D"/>
        <path fill="#3B1D1D" d="M18.037 24.256h2.028l-1.014-2.28z"/>
    </g>
</svg>
