<svg width="45" height="45" viewBox="0 0 45 45" xmlns="http://www.w3.org/2000/svg">
    <g fill="none" fill-rule="evenodd">
        <path d="M45 22.5C45 34.926 34.926 45 22.5 45S0 34.926 0 22.5 10.074 0 22.5 0 45 10.074 45 22.5" fill="#EEEEEF"/>
        <path d="M37.222 19.717H22.807v5.922h8.237c-.355 1.91-1.434 3.533-3.055 4.619l4.947 3.84c2.894-2.665 4.564-6.588 4.564-11.25 0-1.086-.098-2.13-.278-3.131" fill="#507BBD"/>
        <path d="M27.99 30.257c-1.37.92-3.125 1.462-5.183 1.462-3.987 0-7.36-2.693-8.565-6.31L9.13 29.373c2.518 5.003 7.695 8.432 13.678 8.432 4.132 0 7.597-1.37 10.128-3.707l-4.946-3.84z" fill="#32A751"/>
        <path d="M14.242 19.592 9.13 15.626A15.302 15.302 0 0 0 7.5 22.5c0 2.469.592 4.807 1.63 6.873l5.112-3.964a9.207 9.207 0 0 1-.48-2.909c0-1.009.174-1.989.48-2.908" fill="#F6B916"/>
        <path d="M22.807 7.194c-5.983 0-11.16 3.43-13.678 8.433l5.113 3.966c1.204-3.62 4.578-6.312 8.565-6.312 2.247 0 4.264.774 5.85 2.29l4.39-4.39c-2.651-2.47-6.115-3.986-10.24-3.986" fill="#E74233"/>
    </g>
</svg>
