<?xml version="1.0" encoding="UTF-8"?>
<svg width="41px" height="11px" viewBox="0 0 41 11" version="1.1" xmlns="http://www.w3.org/2000/svg" xmlns:xlink="http://www.w3.org/1999/xlink">
    <title>Group 14@3x</title>
    <defs>
        <path d="M4.5,0 C6.98528137,0 9,2.01471863 9,4.5 C9,6.98528137 6.98528137,9 4.5,9 C2.01471863,9 0,6.98528137 0,4.5 C0,2.01471863 2.01471863,0 4.5,0 Z M19.5,0 C21.9852814,0 24,2.01471863 24,4.5 C24,6.98528137 21.9852814,9 19.5,9 C17.0147186,9 15,6.98528137 15,4.5 C15,2.01471863 17.0147186,0 19.5,0 Z M34.5,0 C36.9852814,0 39,2.01471863 39,4.5 C39,6.98528137 36.9852814,9 34.5,9 C32.0147186,9 30,6.98528137 30,4.5 C30,2.01471863 32.0147186,0 34.5,0 Z" id="path-1"></path>
        <filter x="-5.1%" y="-11.1%" width="110.3%" height="144.4%" filterUnits="objectBoundingBox" id="filter-2">
            <feOffset dx="0" dy="1" in="SourceAlpha" result="shadowOffsetOuter1"></feOffset>
            <feGaussianBlur stdDeviation="0.5" in="shadowOffsetOuter1" result="shadowBlurOuter1"></feGaussianBlur>
            <feColorMatrix values="0 0 0 0 0.0901960784   0 0 0 0 0.168627451   0 0 0 0 0.301960784  0 0 0 0.1 0" type="matrix" in="shadowBlurOuter1"></feColorMatrix>
        </filter>
    </defs>
    <g id="상권정보" stroke="none" stroke-width="1" fill="none" fill-rule="evenodd">
        <g id="Combined-Shape" transform="translate(1.000000, 0.000000)">
            <use fill="black" fill-opacity="1" filter="url(#filter-2)" xlink:href="#path-1"></use>
            <use fill="#F8F8F8" fill-rule="evenodd" xlink:href="#path-1"></use>
        </g>
    </g>
</svg>